<svg width="59" height="28" viewBox="0 0 252 43" xmlns="http://www.w3.org/2000/svg">
	<g fill="currentColor">
		<path
			d="M 243.262 34.718 L 243.262 63.087 A 22.026 22.026 0 0 1 237.777 67.743 Q 235.4 69.196 232.473 70.291 A 37.505 37.505 0 0 1 232.08 70.435 A 43.802 43.802 0 0 1 221.664 72.767 A 54.347 54.347 0 0 1 216.064 73.048 A 35.772 35.772 0 0 1 207.404 72.041 A 28.832 28.832 0 0 1 199.878 69.019 A 26.701 26.701 0 0 1 189.497 58.036 A 32.312 32.312 0 0 1 189.136 57.325 A 36.549 36.549 0 0 1 185.967 47.42 A 49.545 49.545 0 0 1 185.254 39.308 L 185.254 34.474 A 53.199 53.199 0 0 1 185.941 25.706 Q 186.824 20.422 188.843 16.041 A 28.243 28.243 0 0 1 194.053 8.26 A 25.35 25.35 0 0 1 199.194 4.127 A 28.061 28.061 0 0 1 210.114 0.327 A 36.097 36.097 0 0 1 215.039 0.001 A 42.727 42.727 0 0 1 222.913 0.681 Q 227.379 1.52 230.9 3.39 A 22.072 22.072 0 0 1 234.814 6.031 A 22.809 22.809 0 0 1 241.564 16.012 A 34.008 34.008 0 0 1 243.262 23.585 L 229.004 23.585 Q 228.323 19.329 226.49 16.663 A 10.17 10.17 0 0 0 224.683 14.649 A 11.249 11.249 0 0 0 220.419 12.44 Q 218.774 11.973 216.817 11.856 A 22.492 22.492 0 0 0 215.479 11.817 A 15.77 15.77 0 0 0 210.569 12.543 A 12.421 12.421 0 0 0 204.102 17.433 A 18.636 18.636 0 0 0 201.714 22.413 Q 200.225 27.055 200.15 33.701 A 62.41 62.41 0 0 0 200.146 34.132 L 200.146 38.673 Q 200.146 45.647 201.799 50.494 A 18.372 18.372 0 0 0 204.395 55.567 Q 208.643 61.28 216.846 61.28 A 30.696 30.696 0 0 0 220.895 61.032 Q 225.552 60.41 228.109 58.23 A 8.649 8.649 0 0 0 228.613 57.765 L 228.613 45.509 L 215.283 45.509 L 215.283 34.718 L 243.262 34.718 Z M 27.637 72.071 L 0 72.071 L 0 0.977 L 24.902 0.977 A 54.34 54.34 0 0 1 32.034 1.414 Q 39.828 2.449 44.531 5.934 A 16.076 16.076 0 0 1 50.986 17.033 A 24.024 24.024 0 0 1 51.221 20.46 A 17.21 17.21 0 0 1 50.371 25.944 A 15.264 15.264 0 0 1 48.535 29.664 A 15.375 15.375 0 0 1 41.654 35.259 A 18.824 18.824 0 0 1 41.064 35.499 A 16.278 16.278 0 0 1 46.087 37.649 A 14.404 14.404 0 0 1 49.683 41.017 A 15.358 15.358 0 0 1 52.623 48.199 A 20.448 20.448 0 0 1 52.832 51.173 Q 52.832 61.427 46.289 66.7 Q 41.088 70.892 32.369 71.813 A 48.819 48.819 0 0 1 27.637 72.071 Z M 78.467 0.977 L 78.467 60.304 L 109.57 60.304 L 109.57 72.071 L 63.818 72.071 L 63.818 0.977 L 78.467 0.977 Z M 176.367 34.962 L 176.367 38.136 A 50.335 50.335 0 0 1 175.552 47.409 A 37.802 37.802 0 0 1 172.656 56.544 A 29.382 29.382 0 0 1 166.946 64.843 A 26.87 26.87 0 0 1 162.036 68.751 A 28.629 28.629 0 0 1 148.934 72.943 A 35.311 35.311 0 0 1 146.191 73.048 A 31.399 31.399 0 0 1 136.368 71.55 A 28.043 28.043 0 0 1 130.42 68.8 A 27.841 27.841 0 0 1 120.419 58.113 A 33.861 33.861 0 0 1 119.678 56.666 Q 115.869 48.78 115.82 38.526 L 115.82 35.011 A 49.399 49.399 0 0 1 116.708 25.431 A 37.787 37.787 0 0 1 119.604 16.529 Q 123.389 8.546 130.298 4.273 A 28.693 28.693 0 0 1 143.365 0.105 A 35.162 35.162 0 0 1 146.094 0.001 A 31.477 31.477 0 0 1 155.678 1.419 A 27.736 27.736 0 0 1 161.89 4.273 A 27.632 27.632 0 0 1 171.588 14.591 A 33.939 33.939 0 0 1 172.583 16.529 A 38.717 38.717 0 0 1 175.835 27.472 A 50.811 50.811 0 0 1 176.367 34.962 Z M 161.523 38.38 L 161.523 34.913 Q 161.523 27.97 159.98 23.097 A 19.382 19.382 0 0 0 157.52 17.921 A 12.749 12.749 0 0 0 148.33 12.252 A 17.103 17.103 0 0 0 146.094 12.11 A 15.076 15.076 0 0 0 140.942 12.951 A 12.799 12.799 0 0 0 134.717 17.848 Q 130.713 23.585 130.664 34.669 L 130.664 38.136 A 47.891 47.891 0 0 0 131.055 44.464 Q 131.485 47.683 132.388 50.324 A 20.251 20.251 0 0 0 134.668 55.03 Q 138.672 61.036 146.191 61.036 A 14.958 14.958 0 0 0 151.241 60.222 Q 155.048 58.866 157.52 55.25 Q 161.475 49.464 161.523 38.38 Z M 28.076 41.114 L 14.648 41.114 L 14.648 60.304 L 27.197 60.304 A 17.566 17.566 0 0 0 30.349 60.038 Q 32.117 59.715 33.523 59 A 9.017 9.017 0 0 0 35.278 57.838 A 8.07 8.07 0 0 0 38.09 52.527 A 11.619 11.619 0 0 0 38.184 51.026 A 13.614 13.614 0 0 0 37.665 47.095 Q 36.343 42.717 31.656 41.543 A 15.692 15.692 0 0 0 28.076 41.114 Z M 14.648 12.843 L 14.648 30.763 L 25.488 30.763 A 20.959 20.959 0 0 0 29.534 30.335 Q 35.961 28.944 36.519 23.081 A 12.197 12.197 0 0 0 36.572 21.925 A 13.092 13.092 0 0 0 36.338 19.357 Q 36.042 17.883 35.376 16.768 A 6.272 6.272 0 0 0 33.765 14.967 A 8.652 8.652 0 0 0 31.331 13.716 Q 28.784 12.843 24.902 12.843 L 14.648 12.843 Z" />
	</g>
</svg>