<svg width="59" height="28" viewBox="0 0 252 43" xmlns="http://www.w3.org/2000/svg">
	<g fill="currentColor">
		<path
			d="M 251.025 21.974 L 236.377 21.974 A 12.441 12.441 0 0 0 235.997 18.809 A 8.702 8.702 0 0 0 233.301 14.381 A 10.127 10.127 0 0 0 229.466 12.307 Q 227.948 11.85 226.129 11.721 A 20.878 20.878 0 0 0 224.658 11.671 A 20.626 20.626 0 0 0 221.535 11.893 Q 219.846 12.152 218.477 12.714 A 9.512 9.512 0 0 0 216.309 13.942 A 7.645 7.645 0 0 0 214.221 16.295 Q 213.36 17.84 213.331 19.789 A 9.151 9.151 0 0 0 213.33 19.923 A 6.263 6.263 0 0 0 215.253 24.45 A 10.042 10.042 0 0 0 216.821 25.733 A 22.808 22.808 0 0 0 219.467 27.24 Q 222.336 28.65 226.501 29.944 A 79.151 79.151 0 0 0 227.1 30.128 A 74.622 74.622 0 0 1 234.087 32.587 Q 241.34 35.584 245.313 39.454 Q 251.025 45.021 251.025 53.321 A 19.526 19.526 0 0 1 249.917 60.044 A 16.765 16.765 0 0 1 244.043 67.799 Q 238.042 72.31 228.472 72.944 A 48.82 48.82 0 0 1 225.244 73.048 A 38.937 38.937 0 0 1 216.019 71.989 A 33.391 33.391 0 0 1 210.303 70.045 A 27.397 27.397 0 0 1 204.709 66.757 A 21.308 21.308 0 0 1 200.024 61.817 A 20.633 20.633 0 0 1 196.543 51.455 A 25.6 25.6 0 0 1 196.484 49.708 L 211.182 49.708 A 13.995 13.995 0 0 0 212.006 54.718 Q 214.587 61.476 225.244 61.476 A 20.914 20.914 0 0 0 228.285 61.268 Q 229.932 61.026 231.272 60.5 A 9.537 9.537 0 0 0 233.398 59.352 A 6.764 6.764 0 0 0 236.27 54.457 A 9.055 9.055 0 0 0 236.328 53.419 A 9.359 9.359 0 0 0 235.952 50.692 A 7.041 7.041 0 0 0 233.398 47.047 A 15.484 15.484 0 0 0 231.446 45.814 Q 229.233 44.611 225.726 43.342 A 88.716 88.716 0 0 0 222.852 42.359 A 117.494 117.494 0 0 1 218.401 40.825 Q 216.141 39.992 214.251 39.168 A 46.769 46.769 0 0 1 210.791 37.501 A 30.175 30.175 0 0 1 204.937 33.461 A 17.618 17.618 0 0 1 198.682 19.874 A 17.168 17.168 0 0 1 201.929 9.596 A 19.372 19.372 0 0 1 207.408 4.521 A 25.935 25.935 0 0 1 211.255 2.54 A 32.757 32.757 0 0 1 220.096 0.274 A 41.113 41.113 0 0 1 224.902 0.001 A 35.959 35.959 0 0 1 232.316 0.735 A 28.635 28.635 0 0 1 238.477 2.76 Q 244.434 5.519 247.729 10.548 A 20.252 20.252 0 0 1 251.018 21.377 A 24.463 24.463 0 0 1 251.025 21.974 Z M 175.195 48.39 L 189.844 48.39 A 30.152 30.152 0 0 1 188.101 56.758 A 23.351 23.351 0 0 1 181.372 66.456 A 26.289 26.289 0 0 1 169.922 72.121 Q 165.934 73.044 161.267 73.048 A 47.856 47.856 0 0 1 161.23 73.048 A 32.661 32.661 0 0 1 151.797 71.754 A 25.01 25.01 0 0 1 139.722 63.844 A 30.905 30.905 0 0 1 133.607 52.128 Q 132.315 47.611 131.992 42.246 A 61.121 61.121 0 0 1 131.885 38.575 L 131.885 34.23 A 49.378 49.378 0 0 1 132.733 24.869 A 37.641 37.641 0 0 1 135.498 16.163 Q 139.111 8.351 145.825 4.176 A 27.695 27.695 0 0 1 157.511 0.215 A 34.954 34.954 0 0 1 161.426 0.001 A 37.334 37.334 0 0 1 169.981 0.928 A 25.711 25.711 0 0 1 181.25 6.593 A 24.754 24.754 0 0 1 188.662 18.413 A 35.451 35.451 0 0 1 189.941 25.099 L 175.293 25.099 A 24.896 24.896 0 0 0 174.736 21.367 Q 174.29 19.46 173.542 17.967 A 10.043 10.043 0 0 0 171.46 15.113 A 10.226 10.226 0 0 0 167.766 12.94 Q 165.111 12.013 161.426 12.013 A 16.148 16.148 0 0 0 156.921 12.605 A 11.557 11.557 0 0 0 150.464 17.262 Q 147.066 22.165 146.757 32.118 A 64.401 64.401 0 0 0 146.729 33.546 L 146.729 38.917 Q 146.729 49.032 149.418 54.369 A 14.147 14.147 0 0 0 150.22 55.763 A 11.376 11.376 0 0 0 158.133 60.83 A 17.928 17.928 0 0 0 161.23 61.085 Q 168.018 61.085 171.362 57.984 Q 174.098 55.448 174.923 50.641 A 23.94 23.94 0 0 0 175.195 48.39 Z M 22.021 72.071 L 0 72.071 L 0 0.978 L 21.875 0.978 A 35.628 35.628 0 0 1 32.054 2.389 A 31.074 31.074 0 0 1 38.647 5.201 A 29.452 29.452 0 0 1 50.195 17.213 Q 54.346 25.001 54.346 34.913 L 54.346 38.185 A 41.116 41.116 0 0 1 53.195 48.096 A 33.872 33.872 0 0 1 50.269 55.812 Q 46.191 63.526 38.77 67.775 A 32.692 32.692 0 0 1 24.889 71.954 A 39.492 39.492 0 0 1 22.021 72.071 Z M 123.389 34.962 L 123.389 38.136 A 50.335 50.335 0 0 1 122.573 47.409 A 37.802 37.802 0 0 1 119.678 56.544 A 29.382 29.382 0 0 1 113.967 64.843 A 26.87 26.87 0 0 1 109.058 68.751 A 28.629 28.629 0 0 1 95.956 72.943 A 35.311 35.311 0 0 1 93.213 73.048 A 31.399 31.399 0 0 1 83.389 71.55 A 28.043 28.043 0 0 1 77.441 68.8 A 27.841 27.841 0 0 1 67.441 58.113 A 33.861 33.861 0 0 1 66.699 56.666 Q 62.891 48.78 62.842 38.526 L 62.842 35.011 A 49.399 49.399 0 0 1 63.73 25.431 A 37.787 37.787 0 0 1 66.626 16.529 Q 70.41 8.546 77.319 4.274 A 28.693 28.693 0 0 1 90.386 0.105 A 35.162 35.162 0 0 1 93.115 0.001 A 31.477 31.477 0 0 1 102.699 1.419 A 27.736 27.736 0 0 1 108.911 4.274 A 27.632 27.632 0 0 1 118.61 14.592 A 33.939 33.939 0 0 1 119.604 16.529 A 38.717 38.717 0 0 1 122.857 27.472 A 50.811 50.811 0 0 1 123.389 34.962 Z M 108.545 38.38 L 108.545 34.913 Q 108.545 27.97 107.001 23.097 A 19.382 19.382 0 0 0 104.541 17.921 A 12.749 12.749 0 0 0 95.351 12.252 A 17.103 17.103 0 0 0 93.115 12.11 A 15.076 15.076 0 0 0 87.964 12.951 A 12.799 12.799 0 0 0 81.738 17.848 Q 77.734 23.585 77.686 34.669 L 77.686 38.136 A 47.891 47.891 0 0 0 78.077 44.464 Q 78.507 47.683 79.41 50.324 A 20.251 20.251 0 0 0 81.689 55.03 Q 85.693 61.036 93.213 61.036 A 14.958 14.958 0 0 0 98.262 60.223 Q 102.069 58.866 104.541 55.25 Q 108.496 49.464 108.545 38.38 Z M 21.875 12.843 L 14.648 12.843 L 14.648 60.304 L 21.729 60.304 A 20.935 20.935 0 0 0 27.157 59.641 A 14.457 14.457 0 0 0 34.863 54.689 Q 38.473 50.225 39.275 42.707 A 42.247 42.247 0 0 0 39.502 38.624 L 39.502 34.864 A 41.857 41.857 0 0 0 39.085 28.746 Q 38.133 22.321 35.01 18.434 A 14.52 14.52 0 0 0 26.232 13.249 A 22.181 22.181 0 0 0 21.875 12.843 Z" />
	</g>
</svg>